<?xml version="1.0" encoding="UTF-8" standalone="no"?>
<!DOCTYPE svg PUBLIC "-//W3C//DTD SVG 1.1//EN"
 "http://www.w3.org/Graphics/SVG/1.1/DTD/svg11.dtd">
<!-- Generated by graphviz version 12.2.1 (20241206.2353)
 -->
<!-- Title: tree Pages: 1 -->
<svg width="702pt" height="1124pt"
 viewBox="0.00 0.00 702.17 1124.00" xmlns="http://www.w3.org/2000/svg" xmlns:xlink="http://www.w3.org/1999/xlink">
<g id="graph0" class="graph" transform="scale(1 1) rotate(0) translate(4 1120)">
<title>tree</title>
<polygon fill="white" stroke="none" points="-4,4 -4,-1120 698.17,-1120 698.17,4 -4,4"/>
<!-- Attribute a1 -->
<g id="node1" class="node">
<title>Attribute a1</title>
<ellipse fill="none" stroke="black" cx="354.93" cy="-1098" rx="55.45" ry="18"/>
<text text-anchor="middle" x="354.93" y="-1092.95" font-family="Times New Roman,serif" font-size="14.00">Attribute a1</text>
</g>
<!-- old ➔ Decision: down -->
<g id="node2" class="node">
<title>old ➔ Decision: down</title>
<ellipse fill="none" stroke="black" cx="97.93" cy="-558" rx="97.93" ry="18"/>
<text text-anchor="middle" x="97.93" y="-552.95" font-family="Times New Roman,serif" font-size="14.00">old ➔ Decision: down</text>
</g>
<!-- Attribute a1&#45;&gt;old ➔ Decision: down -->
<g id="edge1" class="edge">
<title>Attribute a1&#45;&gt;old ➔ Decision: down</title>
<path fill="none" stroke="black" d="M346.67,-1079.71C309.43,-1001.77 157.04,-682.75 111.1,-586.57"/>
<polygon fill="black" stroke="black" points="114.28,-585.11 106.81,-577.59 107.96,-588.12 114.28,-585.11"/>
</g>
<!-- mid ➔ Attribute a2 -->
<g id="node3" class="node">
<title>mid ➔ Attribute a2</title>
<ellipse fill="none" stroke="black" cx="354.93" cy="-558" rx="86.67" ry="18"/>
<text text-anchor="middle" x="354.93" y="-552.95" font-family="Times New Roman,serif" font-size="14.00">mid ➔ Attribute a2</text>
</g>
<!-- Attribute a1&#45;&gt;mid ➔ Attribute a2 -->
<g id="edge2" class="edge">
<title>Attribute a1&#45;&gt;mid ➔ Attribute a2</title>
<path fill="none" stroke="black" d="M354.93,-1079.71C354.93,-1002.09 354.93,-685.4 354.93,-587.78"/>
<polygon fill="black" stroke="black" points="358.43,-588.01 354.93,-578.01 351.43,-588.01 358.43,-588.01"/>
</g>
<!-- new ➔ Decision: up -->
<g id="node6" class="node">
<title>new ➔ Decision: up</title>
<ellipse fill="none" stroke="black" cx="603.93" cy="-558" rx="90.25" ry="18"/>
<text text-anchor="middle" x="603.93" y="-552.95" font-family="Times New Roman,serif" font-size="14.00">new ➔ Decision: up</text>
</g>
<!-- Attribute a1&#45;&gt;new ➔ Decision: up -->
<g id="edge3" class="edge">
<title>Attribute a1&#45;&gt;new ➔ Decision: up</title>
<path fill="none" stroke="black" d="M362.93,-1079.71C399,-1001.77 546.65,-682.75 591.16,-586.57"/>
<polygon fill="black" stroke="black" points="594.29,-588.15 595.32,-577.6 587.94,-585.21 594.29,-588.15"/>
</g>
<!-- yes ➔ Decision: down -->
<g id="node4" class="node">
<title>yes ➔ Decision: down</title>
<ellipse fill="none" stroke="black" cx="226.93" cy="-18" rx="98.44" ry="18"/>
<text text-anchor="middle" x="226.93" y="-12.95" font-family="Times New Roman,serif" font-size="14.00">yes ➔ Decision: down</text>
</g>
<!-- mid ➔ Attribute a2&#45;&gt;yes ➔ Decision: down -->
<g id="edge4" class="edge">
<title>mid ➔ Attribute a2&#45;&gt;yes ➔ Decision: down</title>
<path fill="none" stroke="black" d="M350.81,-539.71C332.31,-461.93 256.68,-144.05 233.63,-47.16"/>
<polygon fill="black" stroke="black" points="237.09,-46.62 231.37,-37.7 230.28,-48.24 237.09,-46.62"/>
</g>
<!-- no ➔ Decision: up -->
<g id="node5" class="node">
<title>no ➔ Decision: up</title>
<ellipse fill="none" stroke="black" cx="481.93" cy="-18" rx="84.11" ry="18"/>
<text text-anchor="middle" x="481.93" y="-12.95" font-family="Times New Roman,serif" font-size="14.00">no ➔ Decision: up</text>
</g>
<!-- mid ➔ Attribute a2&#45;&gt;no ➔ Decision: up -->
<g id="edge5" class="edge">
<title>mid ➔ Attribute a2&#45;&gt;no ➔ Decision: up</title>
<path fill="none" stroke="black" d="M359.01,-539.71C377.37,-461.93 452.41,-144.05 475.28,-47.16"/>
<polygon fill="black" stroke="black" points="478.62,-48.24 477.51,-37.7 471.81,-46.63 478.62,-48.24"/>
</g>
</g>
</svg>
